<svg width="28" height="28" viewBox="0 0 28 28" fill="none" xmlns="http://www.w3.org/2000/svg">
<path d="M23.3332 14V8.16669H25.6665V15.1667H23.3332M23.3332 19.8334H25.6665V17.5H23.3332M11.6665 15.1667C14.7815 15.1667 20.9999 16.73 20.9999 19.8334V23.3334H2.33319V19.8334C2.33319 16.73 8.55152 15.1667 11.6665 15.1667ZM11.6665 4.66669C12.9042 4.66669 14.0912 5.15835 14.9664 6.03352C15.8415 6.90869 16.3332 8.09568 16.3332 9.33335C16.3332 10.571 15.8415 11.758 14.9664 12.6332C14.0912 13.5084 12.9042 14 11.6665 14C10.4288 14 9.24186 13.5084 8.36669 12.6332C7.49152 11.758 6.99986 10.571 6.99986 9.33335C6.99986 8.09568 7.49152 6.90869 8.36669 6.03352C9.24186 5.15835 10.4288 4.66669 11.6665 4.66669ZM11.6665 17.3834C8.20152 17.3834 4.54986 19.0867 4.54986 19.8334V21.1167H18.7832V19.8334C18.7832 19.0867 15.1315 17.3834 11.6665 17.3834ZM11.6665 6.88335C11.0167 6.88335 10.3936 7.14148 9.93411 7.60094C9.47465 8.06041 9.21652 8.68357 9.21652 9.33335C9.21652 9.98313 9.47465 10.6063 9.93411 11.0658C10.3936 11.5252 11.0167 11.7834 11.6665 11.7834C12.3163 11.7834 12.9395 11.5252 13.3989 11.0658C13.8584 10.6063 14.1165 9.98313 14.1165 9.33335C14.1165 8.68357 13.8584 8.06041 13.3989 7.60094C12.9395 7.14148 12.3163 6.88335 11.6665 6.88335Z" fill="black"/>
</svg>
